PathFileType	4	(X/Y/Z)	C:/Users/beibeiliu/ov580/test_trc\sequence.8_training_dense_left.trc
DataRate	CameraRate	NumFrames	NumMarkers	Units	OrigDataRate	OrigDataStartFrame	OrigNumFrames
120	120	23	19	mm	120	282	375
Frame#	Time	ThumbCMC			ThumbMCP			ThumbIP			ThumbTip			IndexMCP			IndexPIP			IndexTip			MiddleMCP			MiddlePIP			MiddleTip			RingMCP			RingPIP			RingTip			PinkyMCP			PinkyPIP			PinkyTip			BackHand1			BackHand2			BackHand3	
		X0	Y0	Z0	X1	Y1	Z1	X2	Y2	Z2	X3	Y3	Z3	X4	Y4	Z4	X5	Y5	Z5	X6	Y6	Z6	X7	Y7	Z7	X8	Y8	Z8	X9	Y9	Z9	X10	Y10	Z10	X11	Y11	Z11	X12	Y12	Z12	X13	Y13	Z13	X14	Y14	Z14	X15	Y15	Z15	X16	Y16	Z16	X17	Y17	Z17	X18	Y18	Z18	
281	2.34167	-267.372	-2.39553	4.72257	-271.747	12.3333	-18.6017	-277.58	22.9005	-31.7467	-283.369	36.6706	-43.5766	-312.597	-4.6648	-42.7252	-291.747	-11.6797	-62.7238	-273.703	-14.119	-38.8108	-314.662	-21.9488	-48.989	-289.387	-30.1829	-60.0181	-276.729	-30.3526	-32.992	-311.449	-40.3167	-44.5982	-287.231	-44.2809	-52.931	-275.824	-35.4445	-26.0841	-309.461	-59.5024	-32.4083	-286.891	-50.9024	-45.5088	-275.332	-46.8948	-21.6892	-306.583	-38.192	6.53527	-288	-41.4858	29.3391	-292.542	-15.8761	16.5837	
282	2.35	-266.379	3.99192	3.35332	-267.573	10.1632	-17.4413	-271.581	26.7747	-30.9435	-275.546	42.6517	-44.2882	-310.627	3.34972	-46.5959	-292.143	-4.80303	-62.808	-273.337	-11.485	-37.5291	-313.951	-19.4941	-49.1041	-289.534	-24.0255	-62.2754	-275.344	-26.6833	-35.3424	-312.138	-33.4234	-45.5452	-286.748	-36.6409	-53.0147	-275.787	-37.0808	-24.4528	-310.59	-49.7947	-36.6673	-286.734	-49.4984	-45.7813	-277.322	-41.912	-22.6622	-309.429	-31.4385	7.86306	-290.43	-39.9434	28.3467	-293.181	-7.66672	17.1502	
283	2.35833	-264.357	2.8386	5.03811	-267.769	14.578	-20.0471	-270.837	28.1562	-33.552	-269.086	43.1749	-43.0266	-308.29	9.15072	-43.1718	-292.842	-0.704993	-63.6495	-272.428	-9.89762	-40.1131	-312.262	-10.972	-49.1737	-291.469	-22.102	-62.5283	-274.198	-24.6329	-35.3605	-313.112	-31.8025	-44.0486	-287.214	-36.2651	-53.2	-276.084	-33.0299	-27.2031	-311.46	-46.8589	-36.6697	-290.258	-47.8017	-46.5093	-276.331	-38.3664	-25.8301	-309.574	-31.2041	9.016	-289.603	-30.4986	28.4962	-292.526	-3.29074	16.5459	
284	2.36667	-261.449	2.94886	4.82707	-261.25	13.4682	-19.2043	-263.924	29.5698	-33.7075	-266.662	43.3512	-46.3647	-306.243	12.6864	-41.6692	-287.855	-1.18731	-63.3165	-269.666	-5.87479	-41.0951	-311.323	-6.02285	-46.7899	-290.802	-16.5044	-64.6468	-272.233	-19.4572	-36.5855	-310.839	-24.183	-45.012	-288.179	-30.7041	-55.2849	-274.558	-27.7199	-29.8476	-311.642	-38.2869	-38.1346	-292.707	-41.3377	-48.6948	-277.635	-36.449	-22.6249	-307.959	-22.5261	5.52653	-291.757	-31.9573	30.9552	-288.828	0.360479	16.2601	
285	2.375	-260.234	5.66943	3.77855	-256.264	17.4636	-19.6038	-258.999	29.006	-35.1773	-253.673	44.3964	-44.95	-302.422	16.2016	-47.2123	-282.456	7.24783	-65.089	-266.641	-2.58537	-44.2017	-308.887	-2.83733	-51.394	-285.028	-13.2097	-63.937	-270.609	-16.1156	-36.3379	-310.465	-20.1144	-43.8131	-285.958	-25.371	-55.4961	-274.281	-27.9812	-28.7078	-311.372	-33.1931	-38.1449	-289.613	-39.1551	-48.2563	-277.606	-33.1933	-26.9649	-307.689	-18.324	7.08976	-293.605	-25.5603	25.5709	-286.782	1.6703	17.1288	
286	2.38333	-259.393	8.08418	1.86703	-252.794	15.6864	-19.8621	-253.822	32.9188	-37.101	-251.725	45.814	-48.2472	-297.607	21.848	-49.4739	-281.248	10.2777	-66.1258	-265.682	-1.67999	-46.4223	-306.129	2.92521	-48.7176	-285.441	-9.95491	-65.9664	-270.831	-14.2192	-34.8593	-306.277	-11.8898	-49.8087	-282.638	-24.5506	-55.5634	-273.946	-23.7463	-27.2577	-311.459	-31.2382	-39.0569	-290.005	-32.9592	-50.6791	-275.667	-28.8384	-26.4295	-307.422	-14.3498	1.92509	-291.088	-18.0528	25.6777	-283.697	6.34663	15.7101	
287	2.39167	-253.656	10.3483	3.35312	-252.729	18.9679	-22.9879	-247.563	35.5719	-38.1947	-244.3	48.4209	-51.1309	-292.202	26.6687	-51.3573	-278.832	11.7691	-67.9656	-261.087	2.0318	-41.8659	-301.656	7.6912	-50.9687	-276.815	-8.02983	-65.0756	-267.732	-10.9269	-35.9522	-303.361	-9.65904	-48.8961	-280.874	-19.0526	-57.4392	-270.809	-19.1791	-28.5054	-309.306	-25.8605	-39.729	-287.133	-29.5868	-50.0993	-275.547	-24.4645	-29.4729	-307.593	-8.82646	1.33737	-290.637	-17.0497	27.3699	-281.923	10.5964	13.9127	
288	2.4	-250.834	11.1439	0.858519	-242.447	20.8377	-23.1125	-241.93	35.9748	-40.5396	-237.576	44.6217	-51.0822	-288.716	27.6537	-51.3532	-272.674	14.6523	-70.2026	-257.533	2.25564	-46.022	-296.903	8.68188	-56.4536	-276.45	-7.70797	-66.2198	-264.159	-8.28776	-34.0169	-302.466	-9.14269	-50.5328	-277.758	-15.9321	-57.3286	-268.452	-16	-31.6636	-306.74	-21.7016	-42.5285	-282.555	-27.5097	-49.4553	-271.7	-22.181	-25.7452	-303.08	-5.54099	2.67907	-287.547	-12.4152	23.4814	-281.541	13.511	8.91195	
289	2.40833	-244.14	13.9244	0.175867	-236.837	20.8716	-24.7476	-234.377	36.4018	-43.5765	-225.685	45.5298	-52.28	-279.031	32.7962	-51.8073	-266.871	13.3141	-70.4319	-255.047	2.73682	-47.0468	-290.1	13.7057	-55.5809	-271.782	-4.81452	-69.7339	-261.567	-6.07355	-33.4716	-293.732	-2.35026	-55.3156	-270.778	-14.2084	-57.4542	-266.893	-16.282	-28.1616	-301.674	-17.2799	-43.9202	-280.903	-24.2853	-53.3424	-269.079	-19.1139	-26.13	-298.767	0.784534	-4.24236	-286.895	-6.08974	22.0641	-277.609	16.0626	9.2397	
290	2.41667	-238.971	16.1737	-3.02916	-231.856	24.5394	-28.6476	-227.131	38.02	-46.4668	-221.122	47.3511	-58.9316	-272.245	35.4966	-54.8934	-260.087	14.3408	-73.266	-248.106	4.44429	-50.7293	-282.829	15.5798	-62.9278	-264.723	-4.61106	-69.0822	-254.583	-2.62276	-37.3794	-287.931	-0.100639	-57.9812	-266.607	-14.709	-58.0169	-262.998	-12.4038	-28.744	-298.584	-13.4144	-46.2203	-273.772	-25.7311	-50.048	-267.691	-20.6231	-27.1293	-292.531	7.48124	-3.24984	-284.215	-1.59248	18.4834	-273.392	19.775	2.18063	
291	2.425	-234.619	18.8633	-6.30544	-229.8	21.9889	-31.3943	-221.46	35.138	-47.88	-212.499	41.7662	-57.3778	-262.971	37.188	-63.6301	-254.448	14.2493	-75.8132	-244.473	3.4147	-50.9708	-276.215	20.2475	-63.8794	-260.485	-3.4337	-72.1653	-250.587	-2.17197	-40.354	-285.348	1.14281	-58.5534	-266.113	-15.7067	-59.8948	-259.527	-11.1624	-29.883	-291.708	-13.6788	-53.3801	-271.049	-21.7998	-51.6591	-264.289	-18.9544	-27.4915	-292.142	7.63693	-9.39945	-282.429	-0.455016	16.3852	-266.403	23.968	3.0571	
292	2.43333	-229.565	19.0132	-8.52272	-223.631	21.6131	-32.1262	-214.295	32.5076	-47.3954	-205.71	43.2059	-61.2503	-259.475	34.5507	-64.2113	-248.402	15.969	-77.8982	-239.792	3.46409	-51.7794	-272.279	17.7321	-65.7203	-251.21	-3.49325	-71.4292	-246.035	-4.32738	-42.3742	-278.266	3.77754	-61.8923	-257.177	-15.8333	-57.4769	-256.079	-12.6238	-33.0607	-290.153	-10.1395	-51.1383	-267.54	-22.4581	-52.3847	-259.814	-14.7216	-29.2024	-287.023	10.6029	-9.76013	-273.883	5.73517	10.6134	-260.727	25.6223	0.758762	
293	2.44167	-224.938	15.0478	-6.8085	-214.567	18.7012	-31.19	-208.026	32.9448	-53.2175	-199.158	37.3607	-61.8392	-250.768	36.4962	-63.4819	-240.863	13.102	-78.7532	-231.281	3.10072	-53.6761	-262.993	20.9209	-71.2928	-249.447	-3.83387	-73.7537	-245.167	-5.17097	-42.0681	-274.221	6.85105	-61.0349	-254.921	-11.9129	-62.7842	-251.197	-12.3882	-33.628	-281.386	-4.5883	-52.7893	-260.862	-17.9069	-52.3201	-255.888	-10.4067	-28.3741	-283.379	15.3388	-14.9537	-272.425	9.36709	9.02847	-254.073	27.2844	-4.13169	
294	2.45	-217.958	17.5622	-11.6691	-210.804	20.0955	-35.2102	-202.728	27.4407	-51.9316	-192.879	33.3829	-65.1908	-242.875	36.3294	-66.2357	-235.937	11.0244	-80.3654	-228.012	3.28344	-50.204	-259.738	18.1436	-71.1124	-245.585	-4.73976	-76.1934	-237.772	-2.7088	-40.1335	-269.711	4.77978	-63.0834	-250.383	-16.0416	-59.5909	-247.381	-11.7394	-33.2621	-277.142	-8.36794	-57.8649	-257.388	-20.9065	-49.8261	-254.201	-9.48578	-25.7013	-276.277	18.847	-17.6513	-268.996	8.66187	11.9125	-248.918	26.7518	-2.99755	
295	2.45833	-216.469	14.413	-10.0125	-202.231	17.8984	-36.3783	-197.97	24.111	-54.1697	-184.011	32.3239	-69.7808	-235.197	32.2346	-73.5238	-229.837	6.73585	-79.6658	-222.844	0.520317	-52.6482	-251.204	19.9563	-70.7769	-240.604	-7.32783	-76.0879	-234.419	-4.52553	-41.191	-261.875	5.32517	-64.254	-244.743	-18.1174	-57.0463	-240.128	-6.80806	-34.2569	-273.892	-7.71043	-55.886	-252.149	-20.7037	-50.3076	-248.123	-9.01621	-26.1409	-268.298	21.7004	-17.9272	-263.859	12.8781	5.51861	-243.39	27.5864	-6.57827	
296	2.46667	-211.562	14.4873	-10.2375	-201.538	15.7666	-36.1128	-191.837	26.6891	-58.5755	-182.386	30.9753	-72.832	-231.448	29.8405	-74.2155	-223.288	7.37376	-83.0406	-220.038	-1.06657	-52.1937	-245.237	17.1573	-74.5959	-232.747	-8.74439	-74.7874	-231.598	-7.66861	-43.3914	-258.507	4.66567	-65.6722	-242.313	-18.6656	-59.5014	-238.71	-10.4075	-34.0195	-267.81	-8.36982	-58.3212	-247.696	-19.3796	-51.3972	-242.094	-11.4591	-30.5853	-267.901	22.9499	-21.8116	-256.784	13.3743	5.22404	-238.87	28.8712	-6.52486	
297	2.475	-206.796	16.8852	-14.814	-199.41	15.9576	-36.794	-189.305	24.2448	-56.6758	-181.984	29.8982	-74.58	-225.411	30.5564	-75.3358	-217.84	5.04583	-82.5023	-216.68	-3.43156	-52.6317	-246.324	17.1418	-74.1038	-230.236	-9.06065	-76.1961	-226.1	-6.04679	-42.8302	-254.916	4.22211	-68.6983	-241.98	-18.5676	-62.6181	-233	-8.30851	-35.3737	-268.269	-5.3322	-58.0346	-248.282	-19.4591	-55.9104	-242.52	-10.2201	-27.7361	-262.319	20.6213	-20.3838	-258.622	15.5204	4.23182	-236.346	29.2223	-12.2791	
298	2.48333	-203.97	14.5773	-14.7525	-191.544	15.0115	-36.8518	-187.49	23.8228	-59.2684	-179.487	27.9536	-73.9842	-223.082	29.3661	-76.8713	-217.974	3.87204	-84.0229	-211.82	-6.41519	-55.3098	-236.798	18.3737	-78.1719	-228.172	-8.5486	-80.4762	-226.076	-8.98343	-43.8319	-249.329	6.73018	-71.3625	-234.629	-16.0576	-64.7875	-232.082	-13.5928	-40.3849	-261.425	-1.38558	-61.4694	-246.748	-20.5509	-55.2053	-240.679	-17.0265	-33.459	-254.853	25.0549	-22.4744	-251.058	17.9849	3.48442	-230.593	30.3179	-11.5019	
299	2.49167	-199.528	13.9273	-15.8537	-191.52	12.9772	-36.4444	-183.652	22.7771	-60.7962	-175.39	28.6094	-79.2725	-219.272	28.1317	-78.2329	-216.564	4.77705	-89.1754	-210.749	-11.422	-67.0225	-237.584	17.5032	-80.5205	-228.861	-7.67577	-85.2565	-220.58	-15.6721	-54.6285	-252.1	9.10432	-70.035	-238.94	-17.1275	-70.2843	-228.098	-16.7962	-47.3467	-264.607	0.46358	-60.6738	-247.869	-16.2576	-64.0993	-234.645	-16.0714	-36.5001	-252.687	26.2839	-22.4307	-249.248	19.6277	2.08411	-226.486	29.9031	-13.3578	
300	2.5	-197.594	9.89727	-11.5347	-187.429	15.1545	-39.7725	-183.496	20.8642	-59.2769	-174.925	25.0011	-79.9102	-219.075	30.1715	-78.4326	-211.559	9.11086	-94.3193	-210.989	-14.8607	-76.2424	-237.099	20.5436	-80.1832	-229.07	-5.27238	-90.8121	-219.271	-19.7601	-64.9762	-250.653	10.437	-74.7481	-239.145	-11.4663	-79.4432	-227.847	-22.0484	-51.673	-262.724	0.672883	-65.0402	-250.222	-17.7087	-68.4497	-235.181	-22.4093	-49.4989	-248.668	24.6162	-22.9097	-243.681	21.9505	0.125919	-225.99	29.8567	-13.4328	
301	2.50833	-197.915	10.747	-14.261	-184.139	14.6059	-39.5899	-176.885	18.2291	-58.4584	-172.518	22.2383	-75.9624	-215.803	30.9426	-75.2687	-211.873	13.7537	-97.5906	-204.795	-14.4607	-89.5955	-234.343	24.0905	-78.1057	-229.218	-3.83126	-96.1111	-222.909	-25.3309	-77.4787	-246.807	15.0329	-73.18	-242.271	-10.2961	-86.5352	-224.341	-25.4898	-65.8981	-263.677	4.58537	-65.2715	-251.795	-14.7494	-74.5155	-234.501	-25.7921	-61.4368	-249.904	23.701	-23.2137	-244.502	21.18	0.633874	-220.568	31.4974	-13.8447	
302	2.51667	-193.047	10.1056	-12.8062	-179.513	13.015	-38.1403	-174.723	16.6204	-54.9597	-166.447	22.2629	-78.1998	-207.706	31.6684	-76.1252	-208.252	17.3397	-100.236	-204.035	-15.098	-101.763	-231.713	24.6156	-82.1993	-227.07	2.57351	-102.819	-219.384	-23.6386	-96.2938	-245.882	17.1223	-77.8541	-244.034	-4.0213	-92.5909	-227.052	-28.4216	-82.372	-260.12	7.73396	-65.5087	-251.414	-8.51613	-80.7041	-237.191	-27.4115	-74.8349	-246.055	24.7209	-23.6071	-244.551	19.639	-0.21894	-217.1	28.4954	-12.4896	
303	2.525	-193.414	8.09079	-11.6447	-177.251	12.0998	-35.7448	-173.318	15.8985	-54.6347	-161.738	19.6766	-72.5091	-208.721	29.5703	-76.3627	-207.633	15.7843	-102.761	-203.455	-7.88143	-112.183	-228.255	26.0734	-85.2262	-227.769	6.89782	-106.75	-218.089	-21.3027	-109.204	-246.783	17.3765	-73.9282	-239.892	3.59105	-96.3349	-230.442	-22.687	-98.888	-257.44	9.53623	-63.9279	-255.401	-7.72167	-84.798	-243.411	-23.1416	-87.8969	-243.861	24.6357	-27.9273	-243.544	21.9942	-2.83702	-217.082	28.0106	-13.7732	
